<svg width="40" height="40" viewBox="0 0 40 40" fill="none" xmlns="http://www.w3.org/2000/svg">
<g clip-path="url(#clip0)">
<path d="M20 40C20 40 35 25.785 35 15C35 11.0218 33.4196 7.20644 30.6066 4.3934C27.7936 1.58035 23.9782 0 20 0C16.0218 0 12.2064 1.58035 9.3934 4.3934C6.58035 7.20644 5 11.0218 5 15C5 25.785 20 40 20 40ZM20 22.5C18.0109 22.5 16.1032 21.7098 14.6967 20.3033C13.2902 18.8968 12.5 16.9891 12.5 15C12.5 13.0109 13.2902 11.1032 14.6967 9.6967C16.1032 8.29018 18.0109 7.5 20 7.5C21.9891 7.5 23.8968 8.29018 25.3033 9.6967C26.7098 11.1032 27.5 13.0109 27.5 15C27.5 16.9891 26.7098 18.8968 25.3033 20.3033C23.8968 21.7098 21.9891 22.5 20 22.5Z" fill="white"/>
</g>
<defs>
<clipPath id="clip0">
<rect width="40" height="40" fill="white"/>
</clipPath>
</defs>
</svg>
