<svg width="40" height="40" viewBox="0 0 40 40" fill="none" xmlns="http://www.w3.org/2000/svg">
<path d="M34.145 28.5667L27.37 22.4067C27.0497 22.1156 26.6289 21.9603 26.1963 21.9737C25.7638 21.9871 25.3533 22.168 25.0517 22.4783L21.0633 26.58C20.1033 26.3967 18.1733 25.795 16.1867 23.8133C14.2 21.825 13.5983 19.89 13.42 18.9367L17.5183 14.9467C17.829 14.6452 18.0102 14.2347 18.0236 13.802C18.037 13.3693 17.8815 12.9484 17.59 12.6283L11.4317 5.85499C11.1401 5.53392 10.7348 5.33917 10.3019 5.31209C9.86904 5.28502 9.44266 5.42776 9.11333 5.70999L5.49666 8.81166C5.20852 9.10085 5.03653 9.48574 5.01333 9.89332C4.98833 10.31 4.51166 20.18 12.165 27.8367C18.8417 34.5117 27.205 35 29.5083 35C29.845 35 30.0517 34.99 30.1067 34.9867C30.5142 34.9638 30.8989 34.7911 31.1867 34.5017L34.2867 30.8833C34.57 30.555 34.7138 30.129 34.6873 29.6962C34.6609 29.2633 34.4662 28.858 34.145 28.5667Z" fill="white"/>
</svg>
