<svg width="711" height="89" viewBox="0 0 711 89" fill="none" xmlns="http://www.w3.org/2000/svg">
<path d="M105.798 80.1H711V87.2912H105.798V80.1Z" fill="white"/>
<path d="M137.482 38.4818H150.003V59.3363C147.141 61.3978 143.85 62.9799 140.129 64.0825C136.409 65.1852 132.688 65.7365 128.968 65.7365C123.721 65.7365 118.998 64.6338 114.801 62.4285C110.603 60.1753 107.312 57.0591 104.927 53.08C102.542 49.1008 101.35 44.5943 101.35 39.5605C101.35 34.5267 102.542 30.0202 104.927 26.041C107.312 22.0619 110.627 18.9697 114.872 16.7644C119.118 14.5112 123.912 13.3845 129.254 13.3845C133.928 13.3845 138.126 14.1756 141.847 15.7576C145.567 17.3397 148.668 19.6169 151.148 22.5893L142.133 30.7872C138.746 27.0478 134.692 25.1781 129.969 25.1781C125.676 25.1781 122.218 26.4965 119.595 29.1333C116.971 31.7221 115.659 35.1978 115.659 39.5605C115.659 42.3411 116.256 44.8341 117.448 47.0394C118.641 49.1967 120.31 50.8986 122.457 52.1451C124.603 53.3436 127.06 53.9429 129.826 53.9429C132.545 53.9429 135.097 53.3916 137.482 52.2889V38.4818Z" fill="white"/>
<path d="M199.196 53.7272V64.7297H158.985V14.3913H198.266V25.3938H173.009V33.8795H195.26V44.5224H173.009V53.7272H199.196Z" fill="white"/>
<path d="M254.709 14.3913V64.7297H243.047L220.938 37.9065V64.7297H207.057V14.3913H218.72L240.828 41.2145V14.3913H254.709Z" fill="white"/>
<path d="M304.913 53.7272V64.7297H264.702V14.3913H303.983V25.3938H278.726V33.8795H300.978V44.5224H278.726V53.7272H304.913Z" fill="white"/>
<path d="M334.668 51.3541H326.941V64.7297H312.774V14.3913H335.67C340.201 14.3913 344.137 15.1584 347.476 16.6925C350.815 18.1787 353.39 20.336 355.203 23.1646C357.016 25.9452 357.922 29.2291 357.922 33.0165C357.922 36.6601 357.063 39.8482 355.346 42.5808C353.677 45.2655 351.268 47.375 348.12 48.9091L358.924 64.7297H343.755L334.668 51.3541ZM343.612 33.0165C343.612 30.6674 342.873 28.8456 341.394 27.5512C339.915 26.2568 337.721 25.6096 334.811 25.6096H326.941V40.3515H334.811C337.721 40.3515 339.915 39.7283 341.394 38.4818C342.873 37.1874 343.612 35.3656 343.612 33.0165Z" fill="white"/>
<path d="M399.294 54.9497H378.116L374.18 64.7297H359.727L381.836 14.3913H395.788L417.969 64.7297H403.229L399.294 54.9497ZM395.144 44.4505L388.705 28.3422L382.265 44.4505H395.144Z" fill="white"/>
<path d="M421.985 14.3913H436.152V53.4395H460.049V64.7297H421.985V14.3913Z" fill="white"/>
<path d="M505.796 46.4641L500.501 52.1451V64.7297H486.477V14.3913H500.501V35.3177L519.891 14.3913H535.489L515.025 36.684L536.562 64.7297H520.105L505.796 46.4641Z" fill="white"/>
<path d="M571.46 54.9497H550.281L546.346 64.7297H531.893L554.002 14.3913H567.954L590.134 64.7297H575.395L571.46 54.9497ZM567.31 44.4505L560.871 28.3422L554.431 44.4505H567.31Z" fill="white"/>
<path d="M594.151 14.3913H608.317V53.4395H632.215V64.7297H594.151V14.3913Z" fill="white"/>
<path d="M637.821 14.3913H651.988V64.7297H637.821V14.3913Z" fill="white"/>
<path d="M684.963 14.3913C689.494 14.3913 693.429 15.1584 696.768 16.6925C700.107 18.1787 702.683 20.336 704.495 23.1646C706.308 25.9452 707.214 29.2291 707.214 33.0165C707.214 36.8039 706.308 40.0879 704.495 42.8685C702.683 45.6491 700.107 47.8064 696.768 49.3405C693.429 50.8267 689.494 51.5698 684.963 51.5698H676.233V64.7297H662.067V14.3913H684.963ZM684.104 40.3515C687.014 40.3515 689.208 39.7283 690.686 38.4818C692.165 37.1874 692.904 35.3656 692.904 33.0165C692.904 30.6674 692.165 28.8456 690.686 27.5512C689.208 26.2568 687.014 25.6096 684.104 25.6096H676.233V40.3515H684.104Z" fill="white"/>
<path d="M39.0113 8.65381L53.9101 17.194L61.4643 12.8766L39.0113 0L1.50704 21.5114L9.02316 25.8289L39.0113 8.65381Z" fill="white"/>
<path d="M68.9807 17.194L39.0116 34.3691L24.1128 25.8289L16.5776 30.1463L39.0116 43.0039L76.5349 21.5114L68.9807 17.194Z" fill="white"/>
<path d="M7.5352 46.0907L0 41.7733V67.4885L37.5043 89V80.3651L7.5352 63.1711V46.0907Z" fill="white"/>
<path d="M0 33.138L29.9691 50.3131V67.3935L37.5043 71.7298V45.9956L0 24.5031V33.138Z" fill="white"/>
<path d="M62.9716 41.7731V33.1382L40.5186 45.9959V88.9998L48.0538 84.6824V50.3133L62.9716 41.7731Z" fill="white"/>
<path d="M70.4877 28.8206V63.1707L55.589 71.7298V80.3647L78.042 67.4881V24.5031L70.4877 28.8206Z" fill="white"/>
</svg>
